# File created by Blade
# Date/Time:  Tue Apr 07 20:41:02 2015
# Frame Rate: 120.000 fps
#------------------------------------------------------
:FULLY-SPECIFIED
:DEGREES
1138
root 3.847006 34.565216 -3.537268 22.366325 -18.509497 -54.766309
Spine -0.521331 23.170052 35.814602
Head 10.159237 -0.352977 22.352849
LeftShoulder -18.165823 19.693009 39.623141
LeftArm 111.554639 -76.721383 -79.948038
LeftForeArm 19.523971 0.000000 30.259486
LeftHand 11.903959 -0.000000 22.221850
LeftHandThumb1 -26.253704 0.000000 33.147579
RightShoulder -6.408257 35.606475 -30.458527
RightArm 62.341697 73.897970 98.675860
RightForeArm 38.548482 0.000000 60.399327
RightHand 1.634570 -0.000000 29.025522
RightHandThumb1 -24.326973 -0.000000 -32.862282
LeftUpLeg -7.525736 2.041592 47.956740
LeftLeg 18.591573 -0.000000 -0.000000
LeftFoot -12.045438 43.616241 -8.506255
LeftToeBase -5.111387 -0.000000 0.000000
RightUpLeg -137.492212 -54.485736 25.550069
RightLeg -12.833305 -0.000000 0.000000
RightFoot 37.279541 -23.084219 15.525129
RightToeBase 22.246456 -0.000000 -0.000000
1139
root 3.853181 34.563453 -3.543870 22.418665 -18.528859 -54.760568
Spine -0.512226 23.191343 35.818176
Head 10.102449 -0.286963 22.287114
LeftShoulder -18.145653 19.681250 39.631787
LeftArm 111.435320 -76.788644 -79.911803
LeftForeArm 19.429325 -0.000000 30.164058
LeftHand 11.878559 -0.000000 22.192733
LeftHandThumb1 -26.253704 0.000000 33.147579
RightShoulder -6.406391 35.589226 -30.467206
RightArm 62.246104 73.928404 98.575549
RightForeArm 38.635897 -0.000000 60.396699
RightHand 1.621590 -0.000000 29.080860
RightHandThumb1 -24.326973 -0.000000 -32.862282
LeftUpLeg -7.543625 2.065127 47.936395
LeftLeg 18.563265 -0.000000 -0.000000
LeftFoot -12.067715 43.566938 -8.512444
LeftToeBase -5.067968 -0.000000 0.000000
RightUpLeg -137.481386 -54.492406 25.540397
RightLeg -12.826529 -0.000000 0.000000
RightFoot 37.258454 -23.173382 15.594108
RightToeBase 22.229160 -0.000000 -0.000000
1140
root 3.859708 34.560758 -3.549998 22.462696 -18.559728 -54.749806
Spine -0.495516 23.208422 35.810211
Head 10.051472 -0.234020 22.234944
LeftShoulder -18.164515 19.710678 39.603161
LeftArm 111.653349 -76.820871 -80.144861
LeftForeArm 19.292473 -0.000000 30.010572
LeftHand 11.841765 -0.000000 22.082505
LeftHandThumb1 -26.253704 0.000000 33.147579
RightShoulder -6.406650 35.524737 -30.440834
RightArm 62.421087 73.916694 98.722657
RightForeArm 38.625978 -0.000000 60.393105
RightHand 1.668321 -0.000000 29.050619
RightHandThumb1 -24.326973 -0.000000 -32.862282
LeftUpLeg -7.553828 2.105816 47.912559
LeftLeg 18.543785 -0.000000 -0.000000
LeftFoot -12.088050 43.538490 -8.493380
LeftToeBase -5.070438 -0.000000 0.000000
RightUpLeg -137.471822 -54.464850 25.528281
RightLeg -12.809666 -0.000000 0.000000
RightFoot 37.258007 -23.189607 15.606346
RightToeBase 22.052370 -0.000000 -0.000000
1141
root 3.866184 34.557066 -3.556694 22.509477 -18.587935 -54.737670
Spine -0.485930 23.210921 35.798237
Head 10.010411 -0.165086 22.193129
LeftShoulder -18.167869 19.693650 39.607793
LeftArm 111.588425 -76.850203 -80.139241
LeftForeArm 19.159148 0.000000 29.892602
LeftHand 11.888528 -0.000000 21.911127
LeftHandThumb1 -26.253704 0.000000 33.147579
RightShoulder -6.374799 35.557255 -30.403710
RightArm 62.368838 73.942363 98.649935
RightForeArm 38.645120 -0.000000 60.402207
RightHand 1.695750 -0.000000 28.916687
RightHandThumb1 -24.326973 -0.000000 -32.862282
LeftUpLeg -7.575317 2.117342 47.889651
LeftLeg 18.538963 -0.000000 -0.000000
LeftFoot -12.130245 43.529524 -8.499432
LeftToeBase -5.120210 -0.000000 0.000000
RightUpLeg -137.431636 -54.460460 25.490826
RightLeg -12.829030 -0.000000 0.000000
RightFoot 37.312082 -23.155162 15.561426
RightToeBase 22.110131 -0.000000 -0.000000
1142
root 3.873263 34.551901 -3.564685 22.560490 -18.605669 -54.710676
Spine -0.491409 23.227944 35.768145
Head 9.964135 -0.111330 22.148395
LeftShoulder -18.169409 19.727468 39.604547
LeftArm 111.955415 -76.850882 -80.587300
LeftForeArm 19.106294 0.000000 29.818476
LeftHand 11.835525 -0.000000 21.872138
LeftHandThumb1 -26.253704 0.000000 33.147579
RightShoulder -6.391093 35.552148 -30.390266
RightArm 62.454245 73.927505 98.725757
RightForeArm 38.571265 -0.000000 60.399248
RightHand 1.621440 -0.000000 29.055709
RightHandThumb1 -24.326973 -0.000000 -32.862282
LeftUpLeg -7.634294 2.132586 47.857200
LeftLeg 18.575714 -0.000000 -0.000000
LeftFoot -12.206519 43.495596 -8.513096
LeftToeBase -5.084457 -0.000000 0.000000
RightUpLeg -137.446424 -54.440132 25.492700
RightLeg -12.836120 -0.000000 0.000000
RightFoot 37.345183 -23.112480 15.549088
RightToeBase 22.366918 -0.000000 -0.000000
1143
root 3.881739 34.546409 -3.572769 22.594535 -18.626579 -54.700687
Spine -0.462505 23.234648 35.783686
Head 9.927373 -0.052740 22.059044
LeftShoulder -18.176703 19.722249 39.575148
LeftArm 112.186608 -76.835675 -80.874548
LeftForeArm 19.032765 0.000000 29.738011
LeftHand 11.738871 -0.000000 21.752395
LeftHandThumb1 -26.253704 0.000000 33.147579
RightShoulder -6.396358 35.582734 -30.389359
RightArm 62.498883 73.922277 98.759411
RightForeArm 38.516346 -0.000000 60.389764
RightHand 1.588159 -0.000000 29.068864
RightHandThumb1 -24.326973 -0.000000 -32.862282
LeftUpLeg -7.682049 2.130218 47.835917
LeftLeg 18.628973 -0.000000 -0.000000
LeftFoot -12.290564 43.475443 -8.530355
LeftToeBase -5.061391 -0.000000 0.000000
RightUpLeg -137.388774 -54.423912 25.445803
RightLeg -12.845701 -0.000000 0.000000
RightFoot 37.385507 -23.061678 15.420521
RightToeBase 22.230709 -0.000000 -0.000000
